<svg width="32" height="31" viewBox="0 0 32 31" fill="none" xmlns="http://www.w3.org/2000/svg">
<path d="M31.2119 14.8097L17.6275 1.23232L16.7169 0.321768C16.5095 0.11567 16.2289 0 15.9365 0C15.644 0 15.3635 0.11567 15.156 0.321768L0.661083 14.8097C0.448497 15.0214 0.280487 15.2736 0.16697 15.5514C0.0534522 15.8291 -0.00327174 16.1268 0.000145722 16.4268C0.0142082 17.6643 1.04429 18.6522 2.28179 18.6522H3.77593V30.1026H28.097V18.6522H29.6228C30.224 18.6522 30.79 18.4167 31.2154 17.9913C31.4248 17.7825 31.5908 17.5342 31.7036 17.2609C31.8165 16.9875 31.874 16.6945 31.8728 16.3987C31.8728 15.8011 31.6373 15.2351 31.2119 14.8097ZM17.9052 27.5714H13.9677V20.3995H17.9052V27.5714ZM25.5658 16.121V27.5714H20.1552V19.5558C20.1552 18.7788 19.5259 18.1495 18.749 18.1495H13.124C12.347 18.1495 11.7177 18.7788 11.7177 19.5558V27.5714H6.30718V16.121H2.93218L15.94 3.12372L16.7521 3.93583L28.9443 16.121H25.5658Z" fill="#5F6C78"/>
</svg>
