<svg width="33" height="32" viewBox="0 0 33 32" fill="none" xmlns="http://www.w3.org/2000/svg">
<path fill-rule="evenodd" clip-rule="evenodd" d="M22 12C22 13.4145 21.4205 14.7711 20.3891 15.7713C19.3576 16.7715 17.9587 17.3334 16.5 17.3334C15.0413 17.3334 13.6424 16.7715 12.6109 15.7713C11.5795 14.7711 11 13.4145 11 12C11 10.5855 11.5795 9.22898 12.6109 8.22878C13.6424 7.22859 15.0413 6.66669 16.5 6.66669C17.9587 6.66669 19.3576 7.22859 20.3891 8.22878C21.4205 9.22898 22 10.5855 22 12ZM19.25 12C19.25 12.7073 18.9603 13.3855 18.4445 13.8856C17.9288 14.3857 17.2293 14.6667 16.5 14.6667C15.7707 14.6667 15.0712 14.3857 14.5555 13.8856C14.0397 13.3855 13.75 12.7073 13.75 12C13.75 11.2928 14.0397 10.6145 14.5555 10.1144C15.0712 9.61431 15.7707 9.33335 16.5 9.33335C17.2293 9.33335 17.9288 9.61431 18.4445 10.1144C18.9603 10.6145 19.25 11.2928 19.25 12Z" fill="white"/>
<path fill-rule="evenodd" clip-rule="evenodd" d="M16.5 1.33334C8.14688 1.33334 1.375 7.90001 1.375 16C1.375 24.1 8.14688 30.6667 16.5 30.6667C24.8531 30.6667 31.625 24.1 31.625 16C31.625 7.90001 24.8531 1.33334 16.5 1.33334ZM4.125 16C4.125 18.7867 5.10537 21.352 6.7485 23.3893C7.90244 21.9199 9.39111 20.729 11.0982 19.9098C12.8053 19.0905 14.6846 18.6651 16.5894 18.6667C18.4695 18.6649 20.3251 19.0794 22.015 19.8784C23.7049 20.6774 25.1845 21.8399 26.3409 23.2773C27.5322 21.7621 28.3344 19.9936 28.681 18.1181C29.0276 16.2426 28.9086 14.3141 28.3339 12.492C27.7593 10.6699 26.7454 9.00674 25.3763 7.64006C24.0072 6.27338 22.3221 5.24249 20.4605 4.63269C18.599 4.02289 16.6144 3.85171 14.6711 4.13331C12.7277 4.41491 10.8815 5.1412 9.28506 6.25208C7.68865 7.36296 6.38799 8.8265 5.49069 10.5216C4.59339 12.2167 4.12525 14.0946 4.125 16ZM16.5 28C13.6592 28.0041 10.9041 27.0565 8.701 25.3173C9.58778 24.0863 10.7681 23.0812 12.1415 22.3876C13.5149 21.6939 15.0408 21.3323 16.5894 21.3333C18.1186 21.3322 19.626 21.6848 20.9865 22.3619C22.347 23.039 23.5213 24.0212 24.4117 25.2267C22.1915 27.0223 19.3911 28.0039 16.5 28Z" fill="white"/>
</svg>
